<svg width="575" height="460" viewBox="0 0 575 460" fill="none" xmlns="http://www.w3.org/2000/svg">
<path d="M118.459 143.012H84.8559V42H119.523C129.694 42 138.428 44.0222 145.727 48.0666C153.025 52.0782 158.617 57.8489 162.503 65.3787C166.423 72.8757 168.382 81.8688 168.382 92.358C168.382 102.88 166.406 111.922 162.452 119.485C158.533 127.048 152.856 132.868 145.423 136.945C137.989 140.99 129.001 143.012 118.459 143.012ZM100.517 129.695H117.597C125.504 129.695 132.076 128.248 137.313 125.355C142.551 122.428 146.47 118.203 149.072 112.679C151.674 107.122 152.975 100.348 152.975 92.358C152.975 84.4336 151.674 77.7093 149.072 72.1852C146.504 66.6611 142.669 62.4687 137.567 59.608C132.465 56.7474 126.129 55.317 118.56 55.317H100.517V129.695Z" fill="black"/>
<path d="M201.086 144.27C197.386 144.27 194.041 143.604 191.05 142.272C188.06 140.916 185.691 138.955 183.942 136.39C182.219 133.826 181.357 130.681 181.357 126.958C181.357 123.752 181.991 121.113 183.258 119.041C184.525 116.97 186.236 115.33 188.39 114.121C190.544 112.913 192.951 112.001 195.612 111.384C198.273 110.768 200.984 110.299 203.747 109.978C207.244 109.584 210.082 109.263 212.262 109.017C214.441 108.745 216.025 108.314 217.013 107.722C218.001 107.13 218.496 106.168 218.496 104.837V104.578C218.496 101.347 217.558 98.8439 215.683 97.0683C213.833 95.2927 211.07 94.4049 207.396 94.4049C203.569 94.4049 200.554 95.231 198.349 96.8833C196.17 98.511 194.662 100.324 193.825 102.321L183.144 99.9536C184.411 96.5011 186.261 93.7144 188.694 91.5935C191.152 89.448 193.977 87.8943 197.171 86.9326C200.364 85.9461 203.721 85.4529 207.244 85.4529C209.575 85.4529 212.046 85.7242 214.656 86.2667C217.292 86.7846 219.75 87.7464 222.031 89.1521C224.337 90.5577 226.225 92.5676 227.695 95.1817C229.164 97.7711 229.899 101.137 229.899 105.28V143.012H218.8V135.244H218.344C217.609 136.674 216.506 138.08 215.036 139.461C213.567 140.842 211.679 141.989 209.373 142.901C207.066 143.813 204.304 144.27 201.086 144.27ZM203.557 135.392C206.699 135.392 209.385 134.787 211.615 133.579C213.871 132.371 215.581 130.792 216.747 128.844C217.938 126.871 218.534 124.763 218.534 122.519V115.194C218.128 115.589 217.343 115.959 216.177 116.304C215.036 116.625 213.731 116.908 212.262 117.155C210.792 117.377 209.36 117.586 207.966 117.784C206.572 117.956 205.407 118.104 204.469 118.228C202.264 118.499 200.25 118.955 198.425 119.596C196.626 120.237 195.181 121.162 194.091 122.371C193.027 123.554 192.495 125.133 192.495 127.106C192.495 129.843 193.534 131.914 195.612 133.32C197.69 134.701 200.338 135.392 203.557 135.392Z" fill="black"/>
<path d="M272.293 86.1927V95.0707H240.4V86.1927H272.293ZM248.953 72.5798H260.319V126.329C260.319 128.474 260.648 130.09 261.307 131.175C261.966 132.235 262.815 132.963 263.854 133.357C264.918 133.727 266.072 133.912 267.313 133.912C268.226 133.912 269.024 133.85 269.708 133.727C270.392 133.604 270.924 133.505 271.305 133.431L273.357 142.568C272.698 142.815 271.761 143.061 270.544 143.308C269.328 143.579 267.807 143.727 265.983 143.752C262.993 143.801 260.205 143.283 257.62 142.198C255.035 141.113 252.945 139.436 251.348 137.167C249.751 134.898 248.953 132.05 248.953 128.622V72.5798Z" fill="black"/>
<path d="M301.857 144.27C298.157 144.27 294.812 143.604 291.822 142.272C288.832 140.916 286.462 138.955 284.714 136.39C282.99 133.826 282.129 130.681 282.129 126.958C282.129 123.752 282.762 121.113 284.029 119.041C285.296 116.97 287.007 115.33 289.161 114.121C291.315 112.913 293.723 112.001 296.383 111.384C299.044 110.768 301.756 110.299 304.518 109.978C308.015 109.584 310.854 109.263 313.033 109.017C315.212 108.745 316.796 108.314 317.785 107.722C318.773 107.13 319.267 106.168 319.267 104.837V104.578C319.267 101.347 318.329 98.8439 316.454 97.0683C314.604 95.2927 311.842 94.4049 308.167 94.4049C304.341 94.4049 301.325 95.231 299.12 96.8833C296.941 98.511 295.433 100.324 294.597 102.321L283.915 99.9536C285.182 96.5011 287.032 93.7144 289.465 91.5935C291.923 89.448 294.749 87.8943 297.942 86.9326C301.135 85.9461 304.493 85.4529 308.015 85.4529C310.347 85.4529 312.818 85.7242 315.428 86.2667C318.063 86.7846 320.521 87.7464 322.802 89.1521C325.108 90.5577 326.996 92.5676 328.466 95.1817C329.936 97.7711 330.671 101.137 330.671 105.28V143.012H319.571V135.244H319.115C318.38 136.674 317.278 138.08 315.808 139.461C314.338 140.842 312.45 141.989 310.144 142.901C307.838 143.813 305.076 144.27 301.857 144.27ZM304.328 135.392C307.47 135.392 310.157 134.787 312.387 133.579C314.642 132.371 316.353 130.792 317.518 128.844C318.709 126.871 319.305 124.763 319.305 122.519V115.194C318.9 115.589 318.114 115.959 316.948 116.304C315.808 116.625 314.503 116.908 313.033 117.155C311.563 117.377 310.131 117.586 308.738 117.784C307.344 117.956 306.178 118.104 305.24 118.228C303.036 118.499 301.021 118.955 299.196 119.596C297.397 120.237 295.953 121.162 294.863 122.371C293.799 123.554 293.266 125.133 293.266 127.106C293.266 129.843 294.305 131.914 296.383 133.32C298.461 134.701 301.11 135.392 304.328 135.392Z" fill="black"/>
<path d="M141.469 203.376C140.929 198.707 138.699 195.09 134.779 192.525C130.86 189.927 125.926 188.628 119.98 188.628C115.722 188.628 112.039 189.286 108.931 190.601C105.822 191.884 103.406 193.659 101.683 195.928C99.9934 198.164 99.1487 200.712 99.1487 203.573C99.1487 205.973 99.7231 208.045 100.872 209.788C102.055 211.53 103.592 212.994 105.484 214.177C107.41 215.328 109.471 216.298 111.667 217.087C113.864 217.844 115.976 218.468 118.003 218.962L128.14 221.526C131.451 222.316 134.847 223.384 138.327 224.732C141.807 226.08 145.034 227.856 148.008 230.059C150.981 232.262 153.38 234.991 155.205 238.247C157.063 241.502 157.992 245.398 157.992 249.936C157.992 255.657 156.472 260.738 153.431 265.177C150.423 269.616 146.048 273.117 140.304 275.682C134.593 278.247 127.683 279.529 119.574 279.529C111.803 279.529 105.079 278.329 99.4021 275.929C93.7255 273.528 89.2823 270.125 86.0723 265.719C82.8624 261.28 81.0885 256.019 80.7506 249.936H96.4625C96.7666 253.586 97.983 256.627 100.112 259.061C102.274 261.461 105.028 263.253 108.373 264.437C111.752 265.588 115.452 266.163 119.473 266.163C123.899 266.163 127.836 265.489 131.282 264.141C134.762 262.76 137.499 260.853 139.493 258.419C141.486 255.953 142.483 253.076 142.483 249.788C142.483 246.796 141.605 244.346 139.848 242.439C138.124 240.532 135.776 238.954 132.803 237.704C129.863 236.455 126.535 235.353 122.818 234.399L110.552 231.144C102.24 228.941 95.6515 225.702 90.7859 221.428C85.9541 217.153 83.5382 211.498 83.5382 204.461C83.5382 198.641 85.16 193.561 88.4038 189.22C91.6475 184.88 96.0401 181.51 101.581 179.109C107.123 176.676 113.374 175.459 120.334 175.459C127.362 175.459 133.563 176.66 138.935 179.06C144.341 181.46 148.599 184.765 151.707 188.974C154.816 193.15 156.438 197.95 156.573 203.376H141.469Z" fill="black"/>
<path d="M197.538 278.999C191.887 278.999 187.021 277.754 182.941 275.263C178.886 272.748 175.769 269.283 173.59 264.868C171.411 260.454 170.321 255.398 170.321 249.702C170.321 243.931 171.436 238.838 173.666 234.424C175.896 229.985 179.039 226.52 183.093 224.029C187.148 221.539 191.925 220.293 197.424 220.293C201.859 220.293 205.812 221.095 209.284 222.698C212.756 224.276 215.556 226.496 217.685 229.356C219.839 232.217 221.118 235.559 221.524 239.381H210.462C209.854 236.718 208.46 234.424 206.281 232.501C204.127 230.577 201.238 229.615 197.614 229.615C194.446 229.615 191.671 230.429 189.289 232.057C186.932 233.66 185.095 235.953 183.777 238.937C182.46 241.896 181.801 245.398 181.801 249.443C181.801 253.586 182.447 257.162 183.739 260.17C185.032 263.179 186.856 265.509 189.213 267.162C191.595 268.814 194.396 269.64 197.614 269.64C199.768 269.64 201.719 269.258 203.468 268.493C205.242 267.704 206.724 266.582 207.915 265.127C209.132 263.672 209.981 261.921 210.462 259.874H221.524C221.118 263.549 219.889 266.829 217.837 269.714C215.784 272.6 213.034 274.868 209.588 276.521C206.167 278.173 202.15 278.999 197.538 278.999Z" fill="black"/>
<path d="M233.678 277.852V221.033H245.044V277.852H233.678ZM239.418 212.266C237.442 212.266 235.744 211.625 234.325 210.343C232.931 209.036 232.234 207.482 232.234 205.682C232.234 203.857 232.931 202.303 234.325 201.021C235.744 199.714 237.442 199.06 239.418 199.06C241.395 199.06 243.08 199.714 244.474 201.021C245.893 202.303 246.603 203.857 246.603 205.682C246.603 207.482 245.893 209.036 244.474 210.343C243.08 211.625 241.395 212.266 239.418 212.266Z" fill="black"/>
<path d="M285.499 278.999C279.747 278.999 274.792 277.803 270.636 275.411C266.505 272.994 263.312 269.603 261.057 265.238C258.827 260.849 257.712 255.707 257.712 249.813C257.712 243.993 258.827 238.863 261.057 234.424C263.312 229.985 266.455 226.52 270.484 224.029C274.539 221.539 279.278 220.293 284.701 220.293C287.995 220.293 291.188 220.824 294.28 221.884C297.372 222.944 300.147 224.609 302.605 226.878C305.063 229.147 307.002 232.094 308.421 235.719C309.84 239.319 310.549 243.697 310.549 248.851V252.772H264.136V244.486H299.412C299.412 241.576 298.804 238.999 297.587 236.755C296.371 234.486 294.66 232.698 292.455 231.391C290.276 230.084 287.717 229.43 284.777 229.43C281.584 229.43 278.796 230.195 276.414 231.724C274.057 233.228 272.233 235.201 270.94 237.642C269.673 240.059 269.04 242.686 269.04 245.522V251.995C269.04 255.793 269.724 259.024 271.092 261.687C272.486 264.35 274.425 266.385 276.908 267.791C279.392 269.172 282.293 269.862 285.613 269.862C287.767 269.862 289.731 269.566 291.505 268.974C293.279 268.358 294.812 267.445 296.105 266.237C297.397 265.029 298.385 263.537 299.07 261.761L309.827 263.648C308.966 266.73 307.42 269.431 305.19 271.749C302.985 274.042 300.21 275.83 296.865 277.113C293.545 278.37 289.757 278.999 285.499 278.999Z" fill="black"/>
<path d="M334.526 244.116V277.852H323.16V221.033H334.07V230.281H334.792C336.135 227.272 338.238 224.856 341.102 223.031C343.991 221.206 347.628 220.293 352.012 220.293C355.99 220.293 359.475 221.107 362.465 222.735C365.456 224.338 367.774 226.73 369.421 229.911C371.069 233.092 371.892 237.026 371.892 241.712V277.852H360.527V243.043C360.527 238.925 359.424 235.707 357.219 233.388C355.015 231.046 351.986 229.874 348.134 229.874C345.499 229.874 343.155 230.429 341.102 231.539C339.075 232.649 337.466 234.276 336.274 236.422C335.109 238.543 334.526 241.107 334.526 244.116Z" fill="black"/>
<path d="M411.73 278.999C406.078 278.999 401.213 277.754 397.133 275.263C393.078 272.748 389.961 269.283 387.782 264.868C385.602 260.454 384.512 255.398 384.512 249.702C384.512 243.931 385.628 238.838 387.858 234.424C390.088 229.985 393.23 226.52 397.285 224.029C401.339 221.539 406.116 220.293 411.615 220.293C416.05 220.293 420.004 221.095 423.475 222.698C426.947 224.276 429.747 226.496 431.876 229.356C434.03 232.217 435.31 235.559 435.715 239.381H424.654C424.046 236.718 422.652 234.424 420.472 232.501C418.318 230.577 415.429 229.615 411.806 229.615C408.638 229.615 405.863 230.429 403.481 232.057C401.124 233.66 399.287 235.953 397.969 238.937C396.651 241.896 395.992 245.398 395.992 249.443C395.992 253.586 396.639 257.162 397.931 260.17C399.223 263.179 401.048 265.509 403.405 267.162C405.787 268.814 408.587 269.64 411.806 269.64C413.96 269.64 415.911 269.258 417.659 268.493C419.433 267.704 420.916 266.582 422.107 265.127C423.323 263.672 424.172 261.921 424.654 259.874H435.715C435.31 263.549 434.081 266.829 432.028 269.714C429.976 272.6 427.226 274.868 423.78 276.521C420.358 278.173 416.342 278.999 411.73 278.999Z" fill="black"/>
<path d="M473.034 278.999C467.282 278.999 462.327 277.803 458.171 275.411C454.041 272.994 450.848 269.603 448.592 265.238C446.362 260.849 445.247 255.707 445.247 249.813C445.247 243.993 446.362 238.863 448.592 234.424C450.848 229.985 453.99 226.52 458.019 224.029C462.074 221.539 466.813 220.293 472.236 220.293C475.531 220.293 478.724 220.824 481.815 221.884C484.907 222.944 487.682 224.609 490.14 226.878C492.598 229.147 494.537 232.094 495.956 235.719C497.375 239.319 498.085 243.697 498.085 248.851V252.772H451.671V244.486H486.947C486.947 241.576 486.339 238.999 485.122 236.755C483.906 234.486 482.195 232.698 479.991 231.391C477.811 230.084 475.252 229.43 472.312 229.43C469.119 229.43 466.331 230.195 463.949 231.724C461.593 233.228 459.768 235.201 458.476 237.642C457.208 240.059 456.575 242.686 456.575 245.522V251.995C456.575 255.793 457.259 259.024 458.628 261.687C460.021 264.35 461.96 266.385 464.444 267.791C466.927 269.172 469.829 269.862 473.148 269.862C475.302 269.862 477.266 269.566 479.04 268.974C480.814 268.358 482.347 267.445 483.64 266.237C484.932 265.029 485.921 263.537 486.605 261.761L497.362 263.648C496.501 266.73 494.955 269.431 492.725 271.749C490.52 274.042 487.745 275.83 484.4 277.113C481.08 278.37 477.292 278.999 473.034 278.999Z" fill="black"/>
<path d="M93.6242 412.693H77L114.354 311.681H132.448L169.801 412.693H153.177L123.832 330.029H123.021L93.6242 412.693ZM96.4118 373.136H150.339V385.96H96.4118V373.136Z" fill="black"/>
<path d="M205.622 413.84C199.971 413.84 195.105 412.594 191.025 410.103C186.97 407.588 183.853 404.123 181.674 399.709C179.495 395.294 178.405 390.239 178.405 384.542C178.405 378.771 179.52 373.679 181.75 369.265C183.98 364.826 187.123 361.361 191.177 358.87C195.232 356.379 200.009 355.134 205.508 355.134C209.943 355.134 213.896 355.935 217.368 357.538C220.84 359.117 223.64 361.336 225.769 364.197C227.923 367.057 229.202 370.399 229.608 374.221H218.546C217.938 371.558 216.544 369.265 214.365 367.341C212.211 365.417 209.322 364.456 205.698 364.456C202.53 364.456 199.755 365.269 197.373 366.897C195.016 368.5 193.179 370.794 191.861 373.778C190.544 376.737 189.885 380.239 189.885 384.283C189.885 388.426 190.531 392.002 191.823 395.011C193.116 398.019 194.94 400.35 197.297 402.002C199.679 403.654 202.48 404.481 205.698 404.481C207.852 404.481 209.803 404.098 211.552 403.334C213.326 402.545 214.808 401.423 215.999 399.968C217.216 398.513 218.065 396.762 218.546 394.715H229.608C229.202 398.389 227.973 401.669 225.921 404.555C223.868 407.44 221.118 409.709 217.672 411.361C214.251 413.013 210.234 413.84 205.622 413.84Z" fill="black"/>
<path d="M258.754 413.95C255.054 413.95 251.709 413.285 248.719 411.953C245.728 410.597 243.359 408.636 241.61 406.071C239.887 403.507 239.026 400.362 239.026 396.638C239.026 393.432 239.659 390.794 240.926 388.722C242.193 386.651 243.904 385.011 246.058 383.802C248.212 382.594 250.619 381.681 253.28 381.065C255.941 380.448 258.653 379.98 261.415 379.659C264.912 379.265 267.75 378.944 269.93 378.697C272.109 378.426 273.693 377.995 274.681 377.403C275.67 376.811 276.164 375.849 276.164 374.517V374.258C276.164 371.028 275.226 368.525 273.351 366.749C271.501 364.974 268.739 364.086 265.064 364.086C261.238 364.086 258.222 364.912 256.017 366.564C253.838 368.192 252.33 370.004 251.494 372.002L240.812 369.634C242.079 366.182 243.929 363.395 246.362 361.274C248.82 359.129 251.646 357.575 254.839 356.613C258.032 355.627 261.39 355.134 264.912 355.134C267.244 355.134 269.714 355.405 272.325 355.948C274.96 356.465 277.418 357.427 279.699 358.833C282.005 360.239 283.893 362.248 285.363 364.863C286.833 367.452 287.568 370.818 287.568 374.961V412.693H276.468V404.925H276.012C275.277 406.355 274.175 407.761 272.705 409.142C271.235 410.523 269.347 411.669 267.041 412.582C264.735 413.494 261.972 413.95 258.754 413.95ZM261.225 405.073C264.367 405.073 267.054 404.468 269.284 403.26C271.539 402.052 273.25 400.473 274.415 398.525C275.606 396.552 276.202 394.444 276.202 392.199V384.875C275.796 385.27 275.011 385.64 273.845 385.985C272.705 386.305 271.4 386.589 269.93 386.836C268.46 387.058 267.028 387.267 265.634 387.464C264.241 387.637 263.075 387.785 262.137 387.908C259.933 388.18 257.918 388.636 256.093 389.277C254.294 389.918 252.849 390.843 251.76 392.051C250.695 393.235 250.163 394.813 250.163 396.786C250.163 399.524 251.202 401.595 253.28 403.001C255.358 404.382 258.007 405.073 261.225 405.073Z" fill="black"/>
<path d="M324.563 413.803C319.85 413.803 315.643 412.631 311.943 410.288C308.269 407.921 305.38 404.555 303.276 400.19C301.198 395.8 300.159 390.535 300.159 384.394C300.159 378.254 301.211 373.001 303.314 368.636C305.443 364.271 308.357 360.929 312.057 358.611C315.757 356.293 319.951 355.134 324.639 355.134C328.263 355.134 331.178 355.726 333.382 356.909C335.612 358.068 337.336 359.425 338.552 360.978C339.794 362.532 340.757 363.901 341.441 365.085H342.125V336.934H353.491V412.693H342.391V403.852H341.441C340.757 405.06 339.768 406.441 338.476 407.995C337.209 409.548 335.46 410.905 333.23 412.064C331 413.223 328.111 413.803 324.563 413.803ZM327.072 404.37C330.341 404.37 333.104 403.531 335.359 401.854C337.64 400.153 339.363 397.797 340.529 394.789C341.72 391.78 342.315 388.278 342.315 384.283C342.315 380.337 341.732 376.885 340.567 373.926C339.401 370.966 337.69 368.66 335.435 367.008C333.18 365.356 330.392 364.53 327.072 364.53C323.651 364.53 320.8 365.393 318.519 367.119C316.239 368.845 314.515 371.2 313.35 374.184C312.209 377.168 311.639 380.535 311.639 384.283C311.639 388.081 312.222 391.497 313.388 394.53C314.553 397.563 316.277 399.968 318.557 401.743C320.864 403.494 323.702 404.37 327.072 404.37Z" fill="black"/>
<path d="M394.877 413.84C389.125 413.84 384.17 412.643 380.014 410.251C375.884 407.835 372.691 404.444 370.435 400.079C368.205 395.689 367.09 390.547 367.09 384.653C367.09 378.833 368.205 373.704 370.435 369.265C372.691 364.826 375.833 361.361 379.862 358.87C383.917 356.379 388.656 355.134 394.079 355.134C397.373 355.134 400.566 355.664 403.658 356.724C406.75 357.785 409.525 359.449 411.983 361.718C414.441 363.987 416.38 366.934 417.799 370.559C419.218 374.16 419.928 378.537 419.928 383.691V387.612H373.514V379.326H408.79C408.79 376.416 408.182 373.839 406.965 371.595C405.749 369.326 404.038 367.538 401.834 366.231C399.654 364.924 397.095 364.271 394.155 364.271C390.962 364.271 388.174 365.035 385.792 366.564C383.435 368.068 381.611 370.041 380.318 372.483C379.051 374.9 378.418 377.526 378.418 380.362V386.836C378.418 390.633 379.102 393.864 380.47 396.527C381.864 399.191 383.803 401.225 386.286 402.631C388.77 404.012 391.672 404.703 394.991 404.703C397.145 404.703 399.109 404.407 400.883 403.815C402.657 403.198 404.19 402.286 405.483 401.077C406.775 399.869 407.764 398.377 408.448 396.601L419.205 398.488C418.344 401.571 416.798 404.271 414.568 406.589C412.363 408.883 409.588 410.671 406.243 411.953C402.923 413.211 399.135 413.84 394.877 413.84Z" fill="black"/>
<path d="M432.538 412.693V355.874H443.448V365.121H444.17C445.387 361.99 447.376 359.548 450.138 357.797C452.9 356.022 456.207 355.134 460.059 355.134C463.962 355.134 467.231 356.022 469.867 357.797C472.528 359.573 474.492 362.014 475.759 365.121H476.367C477.761 362.088 479.978 359.671 483.019 357.871C486.06 356.046 489.684 355.134 493.891 355.134C499.187 355.134 503.508 356.749 506.853 359.98C510.223 363.21 511.909 368.081 511.909 374.591V412.693H500.543V375.627C500.543 371.78 499.466 368.993 497.312 367.267C495.158 365.541 492.585 364.678 489.595 364.678C485.895 364.678 483.019 365.787 480.966 368.007C478.914 370.202 477.887 373.025 477.887 376.478V412.693H466.56V374.924C466.56 371.842 465.571 369.363 463.595 367.489C461.618 365.615 459.046 364.678 455.878 364.678C453.724 364.678 451.735 365.232 449.91 366.342C448.111 367.427 446.654 368.944 445.539 370.892C444.449 372.84 443.904 375.097 443.904 377.662V412.693H432.538Z" fill="black"/>
<path d="M532.236 434C530.538 434 528.992 433.864 527.598 433.593C526.204 433.346 525.165 433.075 524.481 432.779L527.218 423.716C529.296 424.259 531.146 424.493 532.768 424.419C534.39 424.345 535.822 423.753 537.063 422.644C538.331 421.534 539.446 419.721 540.409 417.206L541.815 413.433L520.452 355.874H532.616L547.403 399.968H548.011L562.798 355.874H575L550.938 420.276C549.823 423.235 548.404 425.739 546.681 427.785C544.957 429.857 542.905 431.411 540.523 432.446C538.14 433.482 535.378 434 532.236 434Z" fill="black"/>
<path fill-rule="evenodd" clip-rule="evenodd" d="M14 1.36058e-05L14 460L0 460L2.01072e-05 1.29938e-05L14 1.36058e-05Z" fill="black"/>
</svg>
